PathFileType	4	(X/Y/Z)	C:\Users\Basilio\Documents\Thesis Gigler\squatting_fais\c3dfiles\058\SLS_front_pre4\markers_experimental.trc
DataRate	CameraRate	NumFrames	NumMarkers	Units	OrigDataRate	OrigDataStartFrame	OrigNumFrames
200.000000	200.000000	4	61	mm	200.000000	801	1282
Frame#	Time	FHD			LBHD			RBHD			C7			T10			CLAV			LSHO			LUUPA			LMUPA			LDUPA			LLEP			LRAD			LUL			LRFIN			RSHO			RUPA1			RMUPA			RDUPA			RLEP			RMEP			RRAD			RUL			RUFIN			LASI			RASI			USACR			LSACR			RSACR			LTHI1			LTHI2			LTHI3			LTHI4			LLFC			LMFC			LTIB1			LTIB2			LTIB3			LTIB4			LLMAL			LMMAL			LHEE			LMT1			LMT2			LMT5			RTHI			RTHI2			RTHI3			RTHI4			RLFC			RMFC			RTIB1			RTIB2			RTIB3			RTIB4			RLMAL			RMMAL			RHEE			RMT1			RMT2			RMT5			LMEP			
		X1	Y1	Z1	X2	Y2	Z2	X3	Y3	Z3	X4	Y4	Z4	X5	Y5	Z5	X6	Y6	Z6	X7	Y7	Z7	X8	Y8	Z8	X9	Y9	Z9	X10	Y10	Z10	X11	Y11	Z11	X12	Y12	Z12	X13	Y13	Z13	X14	Y14	Z14	X15	Y15	Z15	X16	Y16	Z16	X17	Y17	Z17	X18	Y18	Z18	X19	Y19	Z19	X20	Y20	Z20	X21	Y21	Z21	X22	Y22	Z22	X23	Y23	Z23	X24	Y24	Z24	X25	Y25	Z25	X26	Y26	Z26	X27	Y27	Z27	X28	Y28	Z28	X29	Y29	Z29	X30	Y30	Z30	X31	Y31	Z31	X32	Y32	Z32	X33	Y33	Z33	X34	Y34	Z34	X35	Y35	Z35	X36	Y36	Z36	X37	Y37	Z37	X38	Y38	Z38	X39	Y39	Z39	X40	Y40	Z40	X41	Y41	Z41	X42	Y42	Z42	X43	Y43	Z43	X44	Y44	Z44	X45	Y45	Z45	X46	Y46	Z46	X47	Y47	Z47	X48	Y48	Z48	X49	Y49	Z49	X50	Y50	Z50	X51	Y51	Z51	X52	Y52	Z52	X53	Y53	Z53	X54	Y54	Z54	X55	Y55	Z55	X56	Y56	Z56	X57	Y57	Z57	X58	Y58	Z58	X59	Y59	Z59	X60	Y60	Z60	X61	Y61	Z61	

802	4.005	-281.7954711914063	1561.269897460938	-619.4962158203126	-428.474822998047	1492.380493164063	-698.6824951171876	-265.1332092285157	1569.61962890625	-760.9368286132814	-446.8474121093751	1379.861328125	-713.1802368164064	-568.8754882812501	1102.254028320313	-708.5258789062501	-301.5674438476563	1298.447143554688	-692.3847045898439	-297.8076171875001	1360.008178710938	-840.279724121094	-154.4192962646485	1305.269653320313	-955.137390136719	-129.4421997070313	1340.389282226563	-927.6339111328127	-84.52439880371095	1305.027465820313	-948.146911621094	-8.779051780700685	1309.234130859375	-932.6224365234377	257.5255737304688	1318.760375976563	-832.0443115234377	260.5933532714844	1348.41455078125	-908.313903808594	356.1876831054688	1346.532470703125	-829.607604980469	-319.7975463867188	1367.827514648438	-551.7863769531251	-172.0327301025391	1291.711669921875	-438.3856201171876	-149.9103393554688	1329.92822265625	-463.1913452148439	-103.4088211059571	1302.065307617188	-439.0917358398439	-35.02202224731446	1296.678344726563	-447.032684326172	-24.81676292419434	1239.124389648438	-496.9785156250001	236.611068725586	1339.313110351563	-526.0419921875001	232.1690521240235	1350.745971679688	-442.9447021484376	324.6807861328126	1370.319091796875	-511.2000122070314	-432.8623962402345	894.0833129882815	-855.776794433594	-423.4869079589845	876.1578369140627	-620.7057495117189	-615.6685791015626	963.641296386719	-714.1311035156251	-626.9119873046876	933.9080810546877	-742.7436523437501	-622.8768310546876	930.2906494140627	-685.0718383789064	-326.3764038085938	698.1254272460939	-930.339050292969	-248.4212188720704	665.3218994140626	-922.332214355469	-219.4796295166016	694.7719726562501	-892.8493652343752	-230.3836059570313	607.8995361328126	-913.8576660156252	-155.5958709716797	543.9109497070314	-901.9475708007815	-138.6990661621094	549.5908813476564	-774.7127075195315	-20.21171951293946	491.9287109375001	-863.281921386719	-25.38510322570801	432.6607360839845	-922.7104492187502	6.662252902984621	451.940643310547	-897.802917480469	66.29174804687501	397.0551147460939	-873.772155761719	171.6230163574219	217.9638061523438	-894.4035644531252	175.0626373291016	244.5972137451172	-806.0850219726565	160.002426147461	146.2555236816407	-842.3528442382815	308.5317077636719	311.7018737792969	-825.3942871093752	308.8637695312501	318.7143249511719	-871.8604125976565	294.8545532226563	266.1163330078126	-925.2778320312502	-405.9869079589845	685.6984863281251	-553.5559692382814	-339.9072570800782	673.3237915039064	-555.6934204101564	-315.5545959472657	694.6306762695314	-559.7552490234376	-306.3746032714844	599.1813354492189	-577.8263549804689	-197.3126831054688	482.1372680664064	-608.9947509765626	-170.063217163086	495.7243041992189	-744.3632202148439	-213.4175720214844	310.7657775878907	-722.0227050781251	-278.0014648437501	245.1324157714844	-659.0244750976564	-250.0944519042969	231.4854736328126	-695.6160888671876	-277.9911804199219	200.4950256347657	-735.0076293945314	-372.8829650878907	114.9403610229492	-696.9727172851564	-339.6349792480469	139.965576171875	-781.934753417969	-444.2874450683595	105.7910614013672	-763.2548217773439	-237.933334350586	61.8197479248047	-769.321472167969	-231.835433959961	61.28640747070314	-716.8952026367189	-282.9936828613282	29.53373336791993	-666.9891967773439	-3.086391210556031	1250.425048828125	-902.841003417969	
803	4.01	-281.7639465332032	1562.031616210938	-619.6737060546876	-429.1447143554689	1493.395385742188	-698.6240234375001	-265.1962585449219	1570.665649414063	-760.9298095703126	-446.9720764160157	1381.075927734375	-713.1118774414064	-568.7765502929689	1102.999755859375	-708.4228515625001	-301.7018127441407	1299.650756835938	-692.3612060546876	-298.0226440429688	1361.046630859375	-840.2718505859377	-154.5017700195313	1306.478759765625	-955.0974731445315	-129.4284973144532	1341.48046875	-927.681091308594	-84.88681793212892	1306.256591796875	-948.0691528320315	-8.839306831359865	1310.421752929688	-932.7302246093752	257.3802795410157	1319.992919921875	-831.7440185546877	260.7849731445313	1350.250244140625	-908.5661621093752	356.8503723144532	1348.065795898438	-829.3630981445315	-319.8129577636719	1368.851928710938	-551.7515258789064	-172.101303100586	1292.797119140625	-438.4282531738282	-150.1641082763672	1330.965576171875	-463.2207031250001	-103.4022064208985	1302.882690429688	-439.1814880371095	-35.22690963745118	1297.484008789063	-446.9647216796876	-25.00679206848145	1240.287841796875	-496.9129028320314	236.3396606445313	1340.158813476563	-525.7990112304689	231.7479095458985	1351.36328125	-443.3095092773439	324.8590698242188	1371.291381835938	-510.7795715332032	-432.7019348144532	894.9459228515627	-855.6917724609377	-423.1712341308595	877.2326660156252	-620.6855468750001	-615.4847412109376	964.4017333984377	-713.9961547851564	-626.8474121093751	935.0910644531252	-742.7269897460939	-622.8155517578126	930.8218994140627	-685.0416870117189	-326.3008117675782	698.9492187500001	-930.138366699219	-248.6020202636719	665.9619140625001	-922.0637817382815	-219.5401458740235	695.2255249023439	-892.425720214844	-230.5011291503907	608.7429199218751	-913.5560302734377	-155.8968963623047	544.3132934570314	-901.8018798828127	-139.3945770263672	549.7639160156251	-774.3367309570315	-20.46294021606446	492.0144042968751	-862.9636840820315	-25.92169380187989	432.830535888672	-922.5825195312502	6.210746765136721	452.1429443359376	-897.5291137695315	65.66067504882814	396.8547973632814	-873.596130371094	170.7132415771485	217.7101135253907	-894.2000122070315	174.1257019042969	244.2992095947266	-805.7686767578127	158.9412384033203	146.0381317138672	-842.1225585937502	307.7390747070313	311.4626770019532	-825.3835449218752	308.1844177246094	318.4772338867188	-871.6680908203127	293.9157714843751	265.8849792480469	-925.2071533203127	-406.3094482421876	686.3051147460939	-553.5017700195314	-339.8599853515626	673.8559570312501	-556.2409667968751	-315.9988708496094	695.5969848632814	-559.4817504882814	-306.6680297851563	599.5891113281251	-577.7717895507814	-197.8134460449219	482.2704467773439	-608.9125366210939	-170.5702362060547	496.0101623535157	-744.1289062500001	-213.6970977783204	310.9196472167969	-721.9526977539064	-278.1763000488282	245.1214904785157	-659.0081787109376	-250.2095947265626	231.5984039306641	-695.7004394531251	-278.1629028320313	200.5023803710938	-734.9407348632814	-372.9213256835938	114.9078674316407	-696.9947509765626	-339.6482238769532	139.9764862060547	-781.9711914062502	-444.2643127441407	105.7965927124024	-763.2971191406251	-237.9225616455079	61.91096496582033	-769.2823486328127	-231.8520812988282	61.26654434204103	-716.8541870117189	-283.0028381347657	29.51957511901856	-667.0258178710939	-3.684019088745118	1251.449584960938	-902.4187011718752	
804	4.015	-282.0050964355469	1563.30419921875	-619.7331542968751	-429.2159423828126	1494.608642578125	-698.5772094726564	-265.2467041015626	1571.838989257813	-760.9441528320314	-447.1352539062501	1382.119018554688	-713.2727661132814	-568.7288818359376	1103.8447265625	-708.3533325195314	-301.8082580566407	1300.718994140625	-692.3796386718751	-298.1474304199219	1362.218383789063	-840.143737792969	-154.5501556396485	1307.391967773438	-955.1631469726565	-129.5660858154297	1342.684326171875	-927.6215820312502	-84.84014892578126	1307.369506835938	-948.1765136718752	-8.947366714477541	1311.631713867188	-932.6775512695315	257.2993469238282	1321.268188476563	-831.884216308594	259.9674682617188	1350.166259765625	-907.992614746094	355.9173889160157	1348.861450195313	-829.7380981445315	-319.9352416992188	1369.973754882813	-551.7702636718751	-172.0203094482422	1293.798706054688	-438.5220336914064	-150.0520324707032	1332.07080078125	-463.1297912597657	-103.7095413208008	1303.876953125	-439.1707458496095	-35.12667846679688	1298.815795898438	-447.0385742187501	-25.16492271423341	1241.274169921875	-496.9714965820314	236.1931152343751	1341.057373046875	-525.8424682617189	231.7538757324219	1352.648071289063	-443.1051025390626	324.4388427734376	1371.598754882813	-511.0692138671876	-432.5370178222657	895.7442626953127	-855.6058349609377	-423.1283569335939	877.8633422851565	-620.5104370117189	-615.4451293945314	965.4296875000002	-714.0561523437501	-626.6849365234376	935.9119873046877	-742.6249389648439	-622.6986083984376	932.0047607421877	-685.0256958007814	-326.4073181152344	699.6064453125001	-929.9304809570315	-248.7183227539063	666.7614135742189	-921.7988281250002	-219.7472839355469	695.7907104492189	-892.036804199219	-230.6350402832032	609.4516601562501	-913.453796386719	-156.210189819336	544.7448120117189	-901.6311035156252	-140.0469665527344	550.0160522460939	-773.9378662109377	-20.64054870605469	492.0972595214845	-862.892517089844	-26.41304588317872	433.0816345214845	-922.3325195312502	5.473357677459718	452.242401123047	-897.2624511718752	65.52154541015626	397.0602111816407	-873.4125976562502	169.7205657958985	217.5687408447266	-894.068054199219	173.3790435791016	244.1277618408204	-805.4660644531252	157.6921081542969	146.1144714355469	-841.8251953125002	306.8277893066407	311.0015563964844	-825.190856933594	307.4169006347657	318.0003967285157	-871.2988891601565	293.0667114257813	265.5099182128907	-924.9910888671877	-406.462371826172	687.1818237304689	-553.4711303710939	-340.0589294433594	674.6187133789064	-555.7122802734376	-316.0266113281251	695.6627807617189	-559.4557495117189	-306.8824462890626	600.0839233398439	-577.7160644531251	-198.4187469482422	482.6046447753907	-608.8536376953126	-171.0955657958985	496.1798095703126	-743.9545898437501	-213.8740844726563	311.2222900390626	-721.8088989257814	-278.2600402832032	245.1445617675782	-658.9828491210939	-250.368392944336	231.8865356445313	-695.6920166015626	-278.8261108398438	200.8721466064454	-734.9205932617189	-372.9324951171876	114.8914413452149	-696.9732055664064	-339.6529541015626	139.9830322265625	-781.969421386719	-444.2786865234376	105.7938003540039	-763.2952270507814	-237.8759765625001	61.8572235107422	-769.277770996094	-231.847640991211	61.28606414794923	-716.8580322265626	-282.9936828613282	29.53373336791993	-666.9891967773439	-3.911248922348023	1252.16162109375	-902.360290527344	
805	4.02	-282.1651916503907	1564.329345703125	-619.8207397460939	-429.4490356445314	1495.813232421875	-698.6418457031251	-265.7790832519532	1572.94140625	-761.0729980468751	-447.4056396484376	1382.940185546875	-713.0902099609376	-568.6074218750001	1104.789184570313	-708.2200927734376	-301.8236083984376	1301.885009765625	-692.3860473632814	-298.2942810058594	1363.524536132813	-840.2399902343752	-154.8770904541016	1308.876586914063	-955.071716308594	-129.7405242919922	1343.874877929688	-927.7198486328127	-85.19435119628908	1308.65673828125	-948.0622558593752	-9.155502319335939	1312.923950195313	-932.6127929687502	257.0553283691407	1322.458862304688	-831.9143066406252	260.1743774414063	1352.302368164063	-908.350280761719	355.7780456542969	1350.193237304688	-829.902770996094	-320.2571716308594	1370.993530273438	-551.5139770507814	-172.2808837890625	1294.949951171875	-438.2483520507814	-150.1026153564453	1332.806640625	-463.0550842285157	-103.6944732666016	1305.305541992188	-438.7613830566407	-35.35717391967774	1299.618286132813	-446.9812927246095	-25.07016944885255	1242.299194335938	-497.0591125488282	236.0679626464844	1341.824462890625	-525.5827026367189	231.5999908447266	1353.3349609375	-442.9757690429689	324.8137512207032	1373.013671875	-510.6090698242189	-432.3889770507814	896.744079589844	-855.4445800781252	-423.3990173339845	878.6052246093752	-620.2759399414064	-615.2396240234376	966.3311157226565	-714.0073242187501	-626.6185302734376	937.0500488281252	-742.6436767578126	-622.5951538085939	932.9202270507815	-685.0560302734376	-326.3525085449219	700.4897460937501	-929.744079589844	-248.703842163086	667.4898681640626	-921.5322875976565	-219.9743804931641	696.3984375000001	-891.5936279296877	-230.9885406494141	609.9982910156251	-913.239685058594	-156.6038055419922	545.2509155273439	-901.4351196289065	-140.5894317626953	550.3237304687501	-773.6756591796877	-21.20063018798828	492.1665039062501	-862.706970214844	-27.11851310729981	433.2306518554689	-922.1089477539065	4.530493259429933	452.1947021484376	-896.9209594726565	64.61827850341798	396.9420776367189	-873.2602539062502	168.740219116211	217.4111633300782	-893.9148559570315	172.4704895019532	243.9485168457032	-805.2630615234377	156.6992950439453	145.8474578857422	-841.6870727539065	305.9022827148438	310.5303039550782	-824.892517089844	306.4508056640626	317.1987609863282	-871.0244750976565	292.1370849609376	264.9292907714844	-924.680358886719	-406.5850219726564	687.7015991210939	-553.5272216796876	-340.4548645019532	674.9124755859376	-555.5983276367189	-316.1192932128907	696.5194091796876	-559.2930297851564	-307.3256530761719	600.6238403320314	-577.6194458007814	-198.6614074707032	482.8846740722657	-608.7520141601564	-171.6373443603516	496.4546203613282	-743.7222290039064	-214.1395874023438	311.3197937011719	-721.7435913085939	-278.3863525390626	245.1693878173829	-658.9420776367189	-250.5335083007813	231.9462127685547	-695.5567016601564	-278.8396911621094	200.4718170166016	-734.8609619140626	-372.9920349121094	114.8253784179688	-696.9957885742189	-339.7178039550782	139.9628601074219	-781.9895629882815	-444.2777099609376	105.7410430908203	-763.2847290039064	-237.9810180664063	61.96258926391603	-769.2860107421877	-231.8179016113282	61.33507919311525	-716.8975830078126	-282.9850463867188	29.55156135559083	-666.9851684570314	-4.117260932922364	1254.318115234375	-902.338317871094	
